<?xml version="1.0" encoding="utf-8" ?>
<svg xmlns="http://www.w3.org/2000/svg" xmlns:xlink="http://www.w3.org/1999/xlink" width="512" height="512">
	<path fill="#C0CDDE" transform="scale(0.666667 0.666667)" d="M-0 -0L768 0L768 768L-0 768L0 -0Z"/>
	<path fill="#E8E8E8" transform="scale(0.666667 0.666667)" d="M382.601 11.9225L397.778 19.4273L429.481 34.7925L551.475 93.2963L588.774 110.898L608.837 120.986L631.775 132.818C635.811 135.104 639.851 137.368 643.497 140.252L643.745 395.4L686.637 395.652L686.16 532.523C681.278 532.522 620.839 531.901 620.656 532.02C620.401 532.187 619.905 533.294 619.705 533.647L615.581 541.428C611.326 549.642 606.254 557.408 601.03 565.033C584.002 589.891 563.423 612.915 541.597 633.639C533.29 641.527 524.226 648.66 515.202 655.708C485.629 678.805 454.073 698.421 421.688 717.294C409.053 724.657 395.72 731.149 383.437 739.064L382.312 738.809L307.013 693.836L270.865 669.639L256.659 658.556L240.753 646.112L223.162 629.877C206.795 614.33 191.808 598.259 178 580.376C168.82 568.486 160.282 556.363 153.06 543.164C151.104 539.588 149.02 536.064 147.373 532.332C146.142 531.75 144.071 532.061 142.663 532.061L130.262 532.063L77.5801 532.109L78.0839 439.699L78.0325 414.663C78.0035 408.334 78.1816 401.968 77.2073 395.696L127.43 395.546L126.379 138.031C132.188 133.944 138.686 130.968 144.995 127.737L178.875 111.002L218.615 91.2837L242.744 80.1282L382.601 11.9225Z"/>
	<path fill="#3188B5" transform="scale(0.666667 0.666667)" d="M168.112 359.62C167.722 357.364 167.858 354.842 167.797 352.543L199.629 358.97C206.562 361.137 214.35 362.234 221.493 363.682C239.164 367.264 256.727 370.762 273.615 377.253C279.772 379.62 285.667 382.041 291.343 385.431L261.646 377.96L168.112 359.62Z"/>
	<defs>
		<linearGradient id="gradient_0" gradientUnits="userSpaceOnUse" x1="188.60147" y1="346.18628" x2="224.42926" y2="396.31299">
			<stop offset="0" stop-color="#55ABD6"/>
			<stop offset="1" stop-color="#BDE8FF"/>
		</linearGradient>
	</defs>
	<path fill="url(#gradient_0)" transform="scale(0.666667 0.666667)" d="M168.112 359.62L261.646 377.96L261.539 378.554C260.574 378.556 259.948 378.733 259.125 378.184C258.1 378.184 258.2 377.74 257.625 377.625C256.579 377.416 256.841 378.248 255.75 377.342C254.925 377.423 254.992 377.553 254.25 377.059L252.938 377.434L252 376.688L251.998 377.248C251.463 377.363 251.052 377.434 250.5 377.438L250.498 377.998L249.938 378.559L249.469 378.094C249.029 378.612 248.711 379.244 248.038 379.38C247.454 379.498 246.937 379.687 246.373 379.873L245.811 380.049C245.204 380.251 244.691 380.52 244.125 380.809L240.175 382.767C239.176 383.265 238.596 383.867 237.934 384.75L238.688 385.5L239.438 385.316L240.188 385.875L240.692 385.772C241.711 385.605 242.755 386.027 243.748 386.252L244.688 386.625C246.095 386.453 246.35 386.855 247.5 386.908L247.887 387.044C248.686 387.285 249.487 387.213 250.312 387.191L251.062 387.75L251.812 387.566L252.562 388.125L253.125 388.033C254.059 387.907 253.792 387.923 254.625 388.316L255.748 388.594L256.112 388.712C256.674 388.853 257.245 388.745 257.812 388.691C258.434 389.154 258.347 389.176 259.123 389.252L259.558 389.347C260.123 389.461 260.615 389.455 261.188 389.441C261.839 389.926 261.725 389.865 262.498 390.002L263.438 390.375C264.346 390.227 264.315 390.051 265.125 390.566C265.801 390.996 265.828 391.14 266.625 391.033C267.485 390.917 267.36 390.866 268.125 391.316C268.83 391.731 269.396 391.728 270.188 391.691C270.698 392.071 270.748 392.249 271.406 392.252L271.875 392.625L272.625 392.533L273.188 393L273.938 392.816L274.5 393.191L275.325 393.508L275.178 393.993L252.091 388.568C224.152 383.136 196.256 379.459 167.951 376.626L167.946 386.357C167.513 383.308 167.665 380.129 167.639 377.049L167.686 360.633L167.846 360.637L168.112 359.62Z"/>
	<path fill="#3188B5" transform="scale(0.666667 0.666667)" d="M404.116 454.688C404.674 454.322 405.239 453.289 405.647 452.727L409.229 447.882C411.164 445.402 413.283 443.059 415.412 440.745C454.339 398.443 514.484 390.735 568.826 387.042L599.159 384.866L599.172 392.23C530.551 397.148 452.642 401.616 404.208 457.5L401.479 460.84L401.313 460.116C401.079 458.658 403.302 455.986 404.116 454.688Z"/>
	<path fill="#3188B5" transform="scale(0.666667 0.666667)" d="M167.946 386.357L167.951 376.626C196.256 379.459 224.152 383.136 252.091 388.568L275.178 393.993L298.562 402.137C321.028 411.314 342.776 424.035 357.867 443.455C364.856 452.449 370.37 462.85 374.848 473.31C375.41 474.623 375.66 475.328 375.562 476.772C374.88 476.19 375.066 476.464 374.686 475.747L374.373 475.125C369.874 466.895 365.415 459.312 359.196 452.203C339.308 429.472 310.867 415.73 282.483 406.982C251.607 397.467 219.729 393.047 187.639 389.968C184.642 389.68 169.329 389.129 168.082 388.125L167.946 386.357Z"/>
	<path fill="#3188B5" transform="scale(0.666667 0.666667)" d="M456.011 228.392L456.75 227.803C465.587 230.25 474.963 234.139 484.233 233.398C484.112 234.667 483.355 238.652 483.781 239.708C484.497 241.485 486.756 243.721 488.006 245.271L496.149 255.562L500.188 260.231L506.344 260.295L506.525 266.448C506.542 267.025 506.404 268.41 506.598 268.912C506.907 269.718 508.137 270.933 508.686 271.652L514.924 279.715C520.007 286.32 524.72 294.175 530.517 300.11C523.294 302.217 516.06 305.426 509.265 308.619C506.42 309.955 503.632 311.579 500.71 312.725L492.523 302.473L466.931 271.583L460.767 264.318C459.9 263.297 458.546 261.932 458.167 260.635C457.298 257.664 457.528 253.633 457.404 250.528L456.629 228.949L456.011 228.392Z"/>
	<defs>
		<linearGradient id="gradient_1" gradientUnits="userSpaceOnUse" x1="403.91751" y1="166.37526" x2="378.87518" y2="260.08676">
			<stop offset="0" stop-color="#51A9DA"/>
			<stop offset="1" stop-color="#A8E0F6"/>
		</linearGradient>
	</defs>
	<path fill="url(#gradient_1)" transform="scale(0.666667 0.666667)" d="M350.97 160.563C360.226 159.795 369.534 161.026 378.83 159.57C381.088 160.485 383.377 161.302 385.4 162.695C383.257 165.17 381.333 167.684 379.924 170.658C379.689 171.154 379.076 172.926 378.674 173.1C378.639 174.942 378.548 176.514 379.58 178.134C382.046 182.005 385.257 185.464 388.088 189.074L408.707 215.318L428.681 241.387C430.602 243.79 432.351 246.752 434.538 248.888C435.061 249.399 435.67 249.782 436.283 250.173L417.729 271L417.241 270.579C415.88 269.162 414.698 267.115 413.515 265.518L406.466 256.381C396.742 244.24 386.052 231.57 378.633 217.862C374.712 210.617 371.912 203.296 369.709 195.375C368.298 190.299 366.98 185.443 366.634 180.161L362.812 179.906L361.228 177.393C360.038 175.717 359.105 173.877 358.031 172.125C356.616 169.815 352.251 164.566 352.753 161.812L352.912 161.17L350.97 160.563Z"/>
	<path fill="#211A1D" transform="scale(0.666667 0.666667)" d="M456.011 228.392L456.629 228.949L457.404 250.528C457.528 253.633 457.298 257.664 458.167 260.635C458.546 261.932 459.9 263.297 460.767 264.318L466.931 271.583L492.523 302.473L500.71 312.725L480.991 322.681C476.473 325.051 471.619 327.489 467.546 330.562L417.729 271L436.283 250.173L456.011 228.392Z"/>
	<defs>
		<linearGradient id="gradient_2" gradientUnits="userSpaceOnUse" x1="351.28949" y1="280.02029" x2="420.87222" y2="243.06076">
			<stop offset="0" stop-color="#0B6F9B"/>
			<stop offset="1" stop-color="#2AB9D6"/>
		</linearGradient>
	</defs>
	<path fill="url(#gradient_2)" transform="scale(0.666667 0.666667)" d="M336.989 176.681L337.011 176.641L347.46 163.914C347.963 163.289 349.192 161.189 349.805 160.812C350.144 160.604 350.582 160.646 350.97 160.563L352.912 161.17L352.753 161.812C352.251 164.566 356.616 169.815 358.031 172.125C359.105 173.877 360.038 175.717 361.228 177.393L362.812 179.906L366.634 180.161C366.98 185.443 368.298 190.299 369.709 195.375C371.912 203.296 374.712 210.617 378.633 217.862C386.052 231.57 396.742 244.24 406.466 256.381L413.515 265.518C414.698 267.115 415.88 269.162 417.241 270.579L417.729 271L467.546 330.562C465.799 332.535 463.447 333.944 461.287 335.426L450.651 342.99L439.681 351.965C437.941 353.448 435.865 355.704 433.847 356.724C430.372 353.447 427.425 349.089 424.379 345.383L410.68 329.412L340.228 244.071L325.101 224.954C323.006 222.257 320.723 219.662 318.864 216.795L318.819 216.796C316.604 214.293 314.9 211.26 313.345 208.312C313.338 207.538 313.356 207.068 313.645 206.334C313.979 205.486 313.885 205.909 314.065 205.026L314.152 204.528C314.369 203.872 315.429 202.86 315.879 202.303L320.163 197.115L336.989 176.681Z"/>
	<path fill="#211A1D" transform="scale(0.666667 0.666667)" d="M179.576 531.938C179.931 531.938 180.341 531.747 180.641 531.938C180.804 532.042 181.475 533.163 181.633 533.396L185 538.447L196.517 554.99C225.216 594.133 261.751 625.941 302.018 652.726L336.685 674.323L373.965 695.715C377.548 697.671 381.004 700.119 384.693 701.83L434.395 672.361C452.546 661.263 470.54 649.928 487.628 637.224C507.045 622.789 525.524 606.712 542.342 589.318C559.36 571.715 574.301 553.188 586.457 531.884C588.32 531.532 590.581 531.79 592.49 531.811L603.794 531.938C600.505 539.841 595.643 547.427 591.063 554.649C582.387 567.508 573.072 580.327 562.866 592.022C556.42 599.407 549.381 606.283 542.334 613.092C530.531 624.498 518.269 635.413 505.312 645.501C486.649 660.033 466.905 672.996 446.971 685.688L406.653 710.09L383.938 723.045C381.542 722.245 379.234 720.743 377.017 719.526L366.237 713.579C340.161 699.05 314.457 683.369 289.889 666.413C261.459 646.79 234.793 624.025 211.379 598.618C197.579 583.644 184.935 568.034 174.161 550.716L166.152 536.625C165.47 535.304 164.329 533.688 164.063 532.235L179.576 531.938Z"/>
	<defs>
		<linearGradient id="gradient_3" gradientUnits="userSpaceOnUse" x1="209.03207" y1="248.52075" x2="328.34512" y2="474.58231">
			<stop offset="0" stop-color="#0068AB"/>
			<stop offset="1" stop-color="#F4FFFF"/>
		</linearGradient>
	</defs>
	<path fill="url(#gradient_3)" transform="scale(0.666667 0.666667)" d="M167.647 330.61L167.562 269.991C184.907 278.552 202.74 285.441 220.945 291.939C224.814 293.32 228.982 295.502 232.982 296.242L233.627 296.348L264.993 308.865C283.648 316.746 301.782 326.416 317.546 339.264C327.257 345.831 336.206 354.382 344.302 362.806C360.269 379.42 375.289 397.941 383.176 419.904L383.009 421.589C382.759 420.819 382.532 420.029 382.171 419.302L381.941 418.875C381.633 418.293 381.397 417.786 381.189 417.162C380.985 416.549 380.709 416.393 380.441 415.875L380.252 415.123L379.691 414L379.125 413.809L378 413.059C377.132 413.059 377.286 413.097 376.5 412.684C376.176 412.514 375.624 412.486 375.271 412.415C374.638 412.288 374.878 412.353 374.25 411.934L373.594 412.031L373.219 411.807C372.633 411.479 372.037 411.385 371.427 411.081C370.721 410.73 371.066 410.814 370.312 410.809L369.75 410.434L368.627 409.873C367.875 409.497 367.217 409.082 366.375 408.938L366.188 409.309C365.534 408.627 365.361 408.349 364.502 407.998L359.439 405.478C357.64 404.577 356.027 403.237 354.224 402.337C353.379 401.915 352.891 401.218 352.312 400.5L351.75 401.059C351.25 400.665 350.797 400.293 350.344 399.844L349.875 400.309L349.219 399.844L348.938 400.309L348.188 399.375L347.812 399.566L348.478 400.541C348.809 401.036 348.864 401.423 349.005 401.983C349.385 403.492 350.79 404.502 351.559 405.75L351.748 406.219C353.069 408.516 355.072 410.45 356.248 412.877L356.809 413.625L357.76 414.985C358.116 415.476 358.239 415.818 358.498 416.344L360.201 419.08C360.837 420.034 360.333 419.215 360.748 420.094L361.843 421.892C362.764 423.373 363.749 425.281 364.498 426.844L364.767 427.33C365.038 427.829 365.207 428.305 365.438 428.816L365.998 429.844C366.285 430.341 366.5 430.833 366.748 431.344L367.028 431.842C367.38 432.488 367.256 432.184 367.403 432.769C367.526 433.255 367.747 433.495 368.059 433.875L368.062 434.625L368.434 435L368.717 435.75L368.998 436.219C369.282 436.717 369.376 437.077 369.559 437.625C369.719 438.106 369.779 438.133 370.028 438.592C370.364 439.208 370.475 439.807 370.79 440.439C371.167 441.193 371.058 440.832 371.062 441.75L371.434 442.125C371.741 442.57 371.797 443.236 371.998 443.719L372.29 444.217C372.614 444.812 372.616 445.038 372.562 445.691C373.4 446.74 373.024 447.18 373.684 448.125C374.304 449.013 374.023 450.561 373.967 451.577C375.065 455.488 376.813 460.113 376.656 464.184C368.692 444.696 359.958 423.222 344.722 408.085L344.714 408.037C340.102 402.495 334.628 397.724 329.106 393.115C320.911 386.275 312.41 380.18 303.096 374.933C289.273 367.147 274.597 361.524 259.73 356.113C251.313 353.049 242.653 349.787 234.033 347.384C230.558 345.591 226.223 344.566 222.496 343.355C204.895 337.636 186.405 332.701 167.962 330.612L167.647 330.61Z"/>
	<path fill="#3188B5" transform="scale(0.666667 0.666667)" d="M167.962 330.612L167.947 316.835C167.945 315.657 167.642 313.458 167.938 312.375C168.037 312.014 168.354 311.752 168.562 311.441C169.116 311.429 169.62 311.414 170.167 311.522L174.373 312.377C175.489 312.69 176.61 312.907 177.748 313.136L178.688 313.332L182.623 314.285L183.75 314.455C187.55 315.476 191.525 316.009 195.373 316.95C205.958 319.538 216.547 322.442 226.859 325.98L282.335 349.748L282.883 350.134C285.941 352.249 289.562 353.909 292.824 355.733L307.919 365.004C332.929 381.827 353.085 404.599 366.066 431.88C369.15 438.36 371.238 444.995 373.967 451.577C375.065 455.488 376.813 460.113 376.656 464.184C368.692 444.696 359.958 423.222 344.722 408.085L344.714 408.037C340.102 402.495 334.628 397.724 329.106 393.115C320.911 386.275 312.41 380.18 303.096 374.933C289.273 367.147 274.597 361.524 259.73 356.113C251.313 353.049 242.653 349.787 234.033 347.384C230.558 345.591 226.223 344.566 222.496 343.355C204.895 337.636 186.405 332.701 167.962 330.612Z"/>
	<path fill="#B7E0F6" transform="scale(0.666667 0.666667)" d="M530.517 300.11L530.963 300.005C536.529 298.654 542.02 296.036 547.391 294.031C559.846 289.382 572.284 284.92 584.255 279.078C589.676 276.433 594.941 272.586 600.466 270.37L600.114 321.397L600.015 328.756L599.769 368.571C599.686 373.784 600.188 379.765 599.159 384.866L568.826 387.042C514.484 390.735 454.339 398.443 415.412 440.745C413.283 443.059 411.164 445.402 409.229 447.882L405.647 452.727C405.239 453.289 404.674 454.322 404.116 454.688L403.585 454.198L405.77 450.953L409.127 446.627C409.502 446.106 409.847 445.62 410.28 445.144L415.043 439.892C416.785 437.646 419.04 435.824 420.944 433.707L421.502 433.127C422.897 432.397 423.623 430.79 424.877 430.127C426.225 429.414 426.894 428.145 428.184 427.371C428.951 426.91 428.338 427.377 429.2 426.659L432.188 424.316C434.872 422.654 437.666 420.542 440.25 418.691L441.002 418.127C441.773 417.755 442.405 417.487 443.092 416.951C443.584 416.568 444.006 416.236 444.569 415.954L445.664 415.38L448.314 413.906L451.502 412.127L452.062 412.125C452.521 411.734 452.88 411.417 453.446 411.188C454.056 410.943 453.783 411.094 454.266 410.818L455.252 410.252C456.54 409.705 455.388 410.383 456.293 409.848C456.842 409.522 457.284 409.176 457.912 409.021C458.461 408.884 459.76 408.189 460.289 407.88C460.86 407.546 461.375 407.286 462 407.066C463.366 406.585 464.783 405.606 466.126 405.272C466.903 405.08 467.862 404.835 468.562 404.441C469.074 404.154 469.328 403.973 469.875 403.783L470.438 403.875L471.469 403.127C471.799 402.998 472.175 403.022 472.507 402.898L472.877 402.752L473.438 402.566L473.812 402.191C474.744 402.191 474.374 402.286 475.196 401.933L476.451 401.428L477.002 401.252C478.376 400.794 480.037 400.116 481.431 399.835C481.731 399.774 482.175 399.724 482.438 399.566C483.378 399.002 482.956 399.445 483.938 399.375C484.337 399.346 487.449 398.29 487.875 398.066L488.438 397.691L489.188 397.875C490.017 397.536 490.849 397.197 491.731 397.022L493.875 396.566L494.438 396.191C494.931 396.206 495.356 396.207 495.844 396.107L496.312 396L497.25 395.816C498.115 395.406 498.141 395.441 499.125 395.441C499.834 394.968 499.828 395.066 500.625 395.066L501.188 394.691C501.816 394.757 502.359 394.865 502.975 394.66C504.796 394.053 506.63 393.803 508.502 393.377C509.132 393.233 509.394 393.163 510.058 393.272L510.562 393.375L510.191 392.812C510.933 392.071 514.083 392.441 515.25 392.441C516.018 391.929 516.232 392.066 517.125 392.066L517.688 391.691C518.378 391.925 518.855 391.879 519.562 391.691C520.154 391.534 520.389 391.374 521.027 391.436C521.843 391.516 521.555 391.179 522.188 390.941C522.517 390.817 523.479 390.941 523.875 390.941C524.727 390.373 525.497 390.566 526.5 390.566C527.689 389.774 529.025 390.641 530.316 390.157C530.77 389.987 531.146 389.82 531.634 389.722L532.127 389.627C532.649 389.508 532.996 389.433 533.54 389.467C534.389 389.519 534.999 389.645 535.816 389.305C536.71 388.935 536.917 389.378 537.75 389.25C537.804 389.242 538.606 388.717 538.688 388.691C539.408 388.464 541.064 388.744 541.875 388.783C542.639 388.149 543.156 388.289 544.125 388.408C545.108 388.529 545.376 387.824 546.562 387.941C547.369 388.021 548.584 388.324 549.375 387.941C550.438 387.427 551.175 387.566 552.375 387.566C553.35 386.917 554.996 387.126 556.156 387.245C556.938 387.325 557.509 387.468 558.282 387.212C558.608 387.104 558.961 386.847 559.312 386.816C559.89 386.766 560.352 387.039 561.012 386.931L561.562 386.816L562.502 386.627C564.486 386.16 567.049 387.091 568.875 386.441C569.728 386.138 569.557 386.013 570.562 386.066C571.351 386.108 572.013 386.135 572.812 386.066C573.435 385.444 577.282 385.748 578.438 385.691L578.812 385.316L580.312 385.316C581.102 385.369 581.764 385.385 582.562 385.316C583.768 384.11 587.059 385.637 588.75 384.941C590.034 384.412 591.262 384.566 592.688 384.566L593.062 384.191L595.5 384.283L596.438 384.191C597.379 384.249 597.894 384.364 598.875 384.188L598.875 378C599.649 376.839 599.25 372.986 599.25 371.438C598.293 371.756 598.151 372.038 597.188 371.625L597 371.062L596.438 371.434L595.502 370.498L595.406 369.844L594.938 370.309L594.375 369.75C593.778 370.412 593.309 370.692 592.5 371.059L592.031 370.594L591.562 371.059L591 370.5L590.438 371.059L589.875 370.5L589.312 371.059L588.75 370.5L588.188 371.059L587.625 370.5L587.062 371.059L586.5 370.5L585.938 371.059L585.375 370.5L584.812 371.059L584.25 370.5L583.781 370.873C583.335 370.579 583.607 370.723 582.938 370.5L582.188 371.434L581.625 370.875L581.156 371.248L580.781 370.969L579.938 371.809L579.375 371.25L578.531 371.998C577.738 372.133 577.678 372.383 577.125 372.934L576.656 372.469L576.281 372.748C575.835 372.454 576.107 372.598 575.438 372.375L575.434 372.938L574.875 373.309L574.406 372.844L574.031 373.123C573.585 372.829 573.857 372.973 573.188 372.75L572.438 373.684L572.062 373.125C571.552 373.305 571.179 373.411 570.785 373.803L570.562 374.059L570 373.5L569.156 374.248C568.604 373.837 568.936 373.947 568.125 374.062C567.604 374.451 567.884 374.262 567.281 374.623C566.835 374.329 567.107 374.473 566.438 374.25L566.248 374.998C565.733 375.169 565.262 375.233 564.748 375.373C564.061 375.56 563.948 375.565 563.252 375.373L562.688 375.184L562.125 375.562L561.75 375.562L561.188 375.934L560.625 375.938L560.062 376.309L559.5 376.312L558.938 376.684L558.375 376.688L558 377.062C557.292 377.062 556.681 377.531 556.031 377.531C555.119 377.531 555.332 377.462 554.531 377.906C553.51 377.76 553.152 378.281 552.281 378.281C551.301 378.282 551.318 378.275 550.406 378.656L549.844 378.561C549.172 378.935 548.977 379.086 548.156 379.031L547.5 378.938C546.908 379.529 547.192 379.467 546.281 379.406C545.284 379.34 545.328 379.509 544.5 380.059L544.031 379.686C543.423 380.01 543.063 380.307 542.344 380.248L540.938 380.059L540.281 380.623L539.906 380.436L539.438 380.809C538.758 380.797 538.102 380.757 537.433 380.892L533.248 381.748L531.748 382.123C531.122 382.293 530.046 382.397 529.5 382.684L528.938 383.059C528.285 383.001 528.052 383.015 527.448 383.317L523.498 385.123L522 385.684C521.458 386.004 521.41 386.242 520.733 386.376C520.022 386.517 519.699 387.047 519.188 387.559L518.625 387.184L517.969 387.469L517.594 387.748L517.125 387.559L516.562 387.934L515.812 387.75L514.688 389.059L511.875 389.059C510.727 389.824 508.061 389.434 506.625 389.434L506.066 389.062C505.493 389.132 505.145 389.16 504.566 389.062L504.283 387.75L504.184 388.875L503.812 389.25L503.809 389.812L503.25 390.184C501.888 389.279 496.857 389.81 495 389.809C494.096 390.411 493.071 390.184 492 390.184C491.098 390.785 489.717 390.559 488.625 390.559C487.916 391.032 487.922 390.934 487.125 390.934C486.221 391.536 485.196 391.309 484.125 391.309C483.416 391.782 483.422 391.684 482.625 391.684L482.062 392.059C481.34 392.042 480.699 392.043 479.998 392.248L478.498 392.623L477.938 392.809C477.418 392.949 476.933 393.012 476.412 393.186L475.312 393.559L472.123 394.498C471.589 394.648 471.325 394.703 470.8 394.966C469.17 395.782 467.226 396.002 465.55 396.841C465.03 397.101 464.997 397.164 464.438 397.309C463.819 397.468 463.485 397.487 462.878 397.79L462.375 398.059L461.816 397.688L459.281 398.998L459 398.812C458.297 398.988 458.202 399.047 457.688 399.559L457.312 399L457.309 399.562L456.75 399.934L456.281 399.469L455.625 399.938C455.049 400.359 455.448 400.098 454.781 400.498C454.335 400.204 454.607 400.348 453.938 400.125L453.188 401.059L452.812 400.5C452.194 400.779 451.731 400.98 451.242 401.469L450.938 401.809L450.562 401.25C450.052 401.43 449.679 401.536 449.285 401.928L449.062 402.184L448.875 401.812L448.312 401.809C447.811 402.394 447.316 402.612 446.625 402.934L445.969 402.469C445.499 402.951 445.128 403.307 444.562 403.684L443.812 403.5L443.623 404.248C443.057 404.319 442.886 404.185 442.592 404.625L442.312 405.184L441.375 405L440.531 405.748L440.062 405.75L439.123 406.873L438.469 406.969L438.094 407.248L437.625 407.062L437.062 408.184L436.125 408L435.562 408.559L435.191 408.188L435.377 407.627L436.031 407.531L435.939 406.969L434.906 407.623L434.438 407.809L434.434 408.562L433.5 408.842L433.031 409.123C431.888 409.693 431.17 410.84 430.123 411.373C429.215 411.836 429.869 411.252 429.215 411.859L426.373 414.373L425.623 415.123C423.621 416.25 421.898 418.382 420.237 420.043C417.839 422.441 415.133 424.804 413.014 427.451L409.873 430.873L409.684 431.438C409.03 431.933 408.654 432.169 408.28 432.913C407.538 434.391 406.017 435.358 405.373 436.873C404.953 437.861 404.115 438.357 403.634 439.381C402.605 441.573 400.864 444.775 399.373 446.623L398.812 446.809L398.438 447.184L397.691 446.625L397.877 445.969C398.141 445.218 398.388 443.857 398.816 443.25L399.188 442.875C399.192 441.972 399.085 442.302 399.46 441.552L399.752 441.002L400.316 439.5C400.945 438.37 401.412 437.179 402.191 436.125C403.149 434.829 403.895 433.35 404.816 432L405.188 431.441L405.941 430.5C406.752 429.303 407.799 428.283 408.53 427.067C409.096 426.127 410.166 425.373 410.627 424.502C411.087 423.632 410.528 424.205 411.088 423.639C411.617 423.105 412.092 422.678 412.549 422.069C414.002 420.13 415.991 418.099 417.715 416.375C418.548 415.542 419.352 414.645 420.272 413.909L423.617 410.834C425.238 409.063 427.316 407.711 429.036 406.039L429.752 405.377C430.635 404.907 430.033 405.49 430.615 404.918L432.212 403.374L432.75 402.941L433.688 402.191C437.127 399.852 440.622 396.546 444.24 394.579L448.301 392.078L450.564 390.656C451.077 390.313 451.495 389.994 452.052 389.716L457.257 386.889L459.002 385.877C459.673 385.576 459.997 385.154 460.688 384.941L461.344 384.752L462.002 384.377C462.918 383.956 463.848 383.373 464.812 383.066C465.497 382.849 465.853 382.823 466.383 382.293L466.688 381.941L467.438 381.941L468.377 381.377C468.883 381.158 469.126 381.194 469.664 380.88C470.235 380.545 470.749 380.287 471.375 380.066L474.375 378.941L475.502 378.377C476.041 378.225 476.503 378.32 477 378C477.852 377.451 478.668 377.14 479.625 376.783C480.475 376.922 480.8 376.482 481.5 376.033L482.062 376.125C482.599 375.807 483.15 375.413 483.763 375.261C484.519 375.073 485.145 374.875 485.849 374.522C486.386 374.253 486.354 374.224 486.938 374.066C487.933 373.798 489.15 373.276 490.127 373.127C491.446 372.925 492.534 372.113 493.877 372.002L494.438 372C494.86 371.642 495.098 371.436 495.657 371.323C496.018 371.251 496.543 371.241 496.875 371.066C497.701 370.632 497.466 370.694 498.375 370.783C498.998 370.266 498.743 370.338 499.407 370.204L499.877 370.127L500.438 369.941C500.957 369.801 501.442 369.738 501.963 369.564C502.656 369.333 503.306 369.191 504.002 369.002L506.438 368.441L507.375 368.158L507.938 368.25L508.312 367.691C508.856 367.776 509.18 367.822 509.719 367.659L510.188 367.5L511.125 367.316L511.688 366.941C512.303 366.97 512.708 367 513.293 366.766C514.579 366.251 516.34 366.425 517.5 365.816C518.346 365.372 518.411 365.441 519.375 365.441C520.084 364.968 520.078 365.066 520.875 365.066L521.438 364.691C521.995 364.704 522.504 364.719 523.056 364.608L523.502 364.502L524.25 364.316L524.812 363.941C525.492 363.953 526.148 363.993 526.817 363.858L527.252 363.752L528.188 363.566C529.311 363.031 529.195 363.537 530.25 363.375C530.975 363.263 531.158 362.816 532.125 362.816C532.977 362.248 533.747 362.441 534.75 362.441C535.459 361.968 535.453 362.066 536.25 362.066L536.812 361.691C537.632 361.75 538.578 361.916 539.367 361.653C540.165 361.387 539.172 361.567 540.375 361.408L541.125 361.316C542.26 360.913 542.86 360.941 544.125 360.941C544.924 360.409 545.253 360.566 546.188 360.566C547.119 359.634 548.493 360.691 549.75 359.908C550.33 360.006 550.615 360.056 551.181 359.831C552.293 359.389 553.058 359.388 554.25 359.533C555.298 359.66 554.78 359.36 555.562 359.066C555.892 358.942 556.854 359.066 557.25 359.066C557.956 358.596 558.1 358.646 558.938 358.691C559.966 358.747 560.904 358.749 561.938 358.691C562.56 358.068 564.187 358.422 565.125 358.316C565.877 357.815 566.657 357.844 567.562 357.941C568.379 358.029 569.182 358.288 570 357.941C571.201 357.432 572.231 357.566 573.562 357.566C574.346 356.783 578.158 357.353 579.562 357.191L579.938 356.816L581.062 356.816C581.851 356.858 582.513 356.885 583.312 356.816C584.031 356.097 590.452 356.45 591.75 356.533C592.552 356.585 592.997 356.553 593.812 356.441C594.574 355.68 598.033 356.066 599.25 356.066C599.261 353.203 599.792 349.216 599.062 346.5L598.031 346.406L597.75 346.125C597.276 346.03 597.29 346.123 597 345.75C596.586 345.217 596.27 344.818 595.781 344.344C595.317 344.487 594.986 344.543 594.492 344.543L591.656 344.531C591.017 344.535 590.415 344.564 589.781 344.436C589.006 344.279 588.558 344.074 587.719 344.156C586.733 344.252 585.883 343.729 584.998 343.873C583.952 344.044 584.925 344.155 583.881 343.984L582.656 343.781L581.906 343.686C581.338 343.571 581.034 343.389 580.418 343.389L579.844 343.406L578.227 343.453C577.627 343.52 577.283 343.204 576.75 342.938L575.906 343.406C575.449 342.949 575.202 343.025 574.564 343.025L574.031 343.031L573.377 342.656C572.424 342.237 571.298 342.052 570.375 342.559L569.812 342.934C569.215 342.729 568.854 342.565 568.35 342.162L567.941 341.812L567.656 342.281L566.812 342.184L566.531 342.656C566.082 342.207 565.755 342.278 565.125 342.188L564.562 342.559C563.692 342.565 563.059 342.72 562.289 343.142L561.844 343.406C560.884 343.395 560.006 343.276 559.154 343.787L558.75 344.062C557.92 344.062 557.755 344.596 556.781 344.531C555.885 344.471 556.043 344.483 555.281 344.906C554.607 344.81 554.776 344.75 554.252 344.906C553.604 345.099 553.136 345.311 552.439 345.311L549.656 345.281L548.531 345.281L547.781 345.186C546.956 345.58 546.456 345.757 545.531 345.656C544.653 345.561 544.766 345.623 544.031 346.031C543.071 345.894 543.026 346.17 542.25 346.688L541.875 346.688L541.5 347.062C540.267 347.262 539.434 348.275 538.312 348.559L537.75 348.562C537.125 348.895 536.702 349.121 536.227 349.657C535.824 350.111 535.999 350.021 535.506 350.266L535.125 350.434L534.281 350.998L533.625 351.184C533.124 351.412 532.934 351.736 532.334 351.936C531.727 352.138 531.177 352.352 530.625 352.684C529.996 353.062 529.487 353.536 528.761 353.716C527.934 353.921 526.709 354.448 525.925 354.841L525.373 355.123L523.875 355.684C523.34 355.934 522.918 356.209 522.339 356.353L522 356.434C520.983 356.948 520.425 356.684 519.527 357.582L519.188 357.934L518.816 357.562L518.25 357.75L517.781 358.123L517.312 358.125L516.938 358.684L516.375 358.125L515.344 358.594L514.969 358.873L514.5 358.688L513.188 359.809L513 359.438L512.344 359.344L511.5 360.184L510.938 359.809L510.281 360.373L509.906 360.094L508.875 360.467L508.312 360.934L507.75 360.467L507.281 360.748C506.616 360.751 506.697 360.865 506.25 361.309L505.688 360.75C505.682 361.569 505.49 361.506 504.938 362.059L504.566 361.5L504.375 360.934L504.184 361.5C503.853 362.053 503.791 361.959 503.623 362.623C503.013 362.7 502.59 362.911 502.031 362.998C501.357 363.104 501.231 363.197 500.625 363.559L500.156 363.094L499.406 363.748C498.072 364.401 499.375 363.413 498.24 364.32L497.812 364.684L497.062 364.5L496.5 365.059L496.031 364.594L495.373 365.248C494.856 365.341 494.607 365.426 494.156 365.728L493.781 365.998L493.312 366L493.309 366.562L492.75 366.934L492.375 366.562L491.812 366.75L491.809 367.312L491.25 367.592L490.781 367.873L490.312 367.875L489.844 368.344C488.73 369.086 489.577 368.107 488.771 369.109L488.438 369.559L488.062 369L488.059 369.562L487.5 369.842L487.031 370.123L486.656 369.844L486.467 370.125L486.188 370.684L485.25 370.5L484.125 371.25L483.656 371.623L483.188 371.625L482.812 372.184L482.438 371.625L482.434 372.188L481.5 372.934L481.031 372.469L480.188 373.309L479.812 372.75C479.192 372.979 478.741 373.185 478.219 373.594L478.309 374.25C478.083 374.705 478.008 375.218 477.469 375.373L477.184 375.375L476.623 376.123L476.062 376.125L475.688 376.684L474.938 375.934L474.934 376.312L474.375 376.684L474 376.312C473.406 376.511 472.54 376.935 472.125 377.434C471.543 378.132 471.445 378.149 470.625 378.559L470.066 378.188L470.533 376.875L470.25 376.5L469.781 376.873C469.316 376.566 469.611 376.703 468.844 376.594C468.278 376.882 467.724 377.117 467.268 377.57L467.062 377.809L466.5 377.25L465.938 377.809L465.375 377.25L464.906 377.623L464.531 377.344L463.781 377.998L463.312 378L462.938 378.559L462.375 378L461.531 378.748C461.085 378.454 461.357 378.598 460.688 378.375L459.938 379.309L459.562 378.75C458.35 379.198 458.085 379.66 457.125 380.434C456.421 381.001 456.248 380.757 455.438 380.625L454.688 381.559L454.312 381C453.802 381.18 453.429 381.286 453.035 381.678L452.812 381.934L452.25 381.375L451.781 381.748L451.406 381.469L450.938 381.75L450.094 382.219L449.719 382.498L449.25 382.309L448.688 382.684L448.312 382.125L448.309 382.688L447.75 383.059L447.281 382.594L446.906 382.873L446.531 382.594C445.799 383.063 445.699 383.411 445.312 384.184L444.188 384L443.062 385.309C442.11 385.967 441.608 386.304 440.812 387.184L439.875 387L439.312 387.559L438.941 387.188L439.125 386.062L437.156 387.656L430.974 393.215L430.498 393.748C429.385 394.117 422.536 400.79 421.873 401.998L421.684 402.562C421.115 402.88 420.623 403.205 420.128 403.626L419.625 404.059L418.691 403.312C418.691 402.394 418.529 401.851 419.062 401.066C419.471 400.465 419.862 399.899 420.181 399.245L420.441 398.703C419.88 398.523 419.457 398.481 418.875 398.438L418.594 398.906L418.217 399L417.375 399.562C416.595 400.06 416.003 399.927 415.688 400.875L414.75 400.688L414.748 401.156L414 400.967L413.746 401.262C412.99 402.123 412.663 402.198 411.748 402.748L410.438 404.059L409.875 404.062L409.5 404.342C408.514 404.997 409.609 404.252 408.375 404.812L408 405.092C407.45 405.457 407.564 405.364 406.875 405.562C406.089 406.34 406.919 405.469 406.123 406.498L405.562 407.059L405 407.062C404.414 407.764 404.304 407.986 403.498 408.373L402.75 408.934L400.684 410.438L399.087 411.684C398.628 412.028 398.122 412.201 397.594 412.406L396.938 411.75C396.221 412.345 396.049 412.465 395.623 413.248L394.312 414.559L393.377 414.373L393.184 413.812L392.625 414.188L392.623 414.748C392.163 414.748 392.341 414.834 392.059 414.562C391.593 415.435 391.437 416.101 391.123 416.998L390.559 418.125C390.172 418.94 390.057 419.719 389.809 420.562C389.505 421.596 389.014 422.253 388.873 423.373L388.592 423.75C388.385 424.142 388.307 424.711 388.222 425.144C388.046 426.03 387.715 426.854 387.375 427.688L387.467 428.25C387.556 428.825 387.556 429.16 387.461 429.738C387.351 430.412 387.609 430.85 387.559 431.438C387.502 432.093 387.083 432.216 386.625 432.559C385.809 432.356 385.826 432.306 385.316 431.625L385.346 431.166C385.411 430.081 385.389 429.473 385.125 428.438L383.797 423.912C383.658 423.497 383.642 423.049 383.533 422.625L383.121 421.855L383.009 421.589L383.176 419.904C384.67 422.934 385.592 426.34 386.351 429.619C387.484 422.927 390.188 416.227 393.057 410.1C402.439 390.064 417.434 371.468 433.847 356.724C435.865 355.704 437.941 353.448 439.681 351.965L450.651 342.99L461.287 335.426C463.447 333.944 465.799 332.535 467.546 330.562C471.619 327.489 476.473 325.051 480.991 322.681L500.71 312.725C503.632 311.579 506.42 309.955 509.265 308.619C516.06 305.426 523.294 302.217 530.517 300.11Z"/>
	<path fill="#3188B5" transform="scale(0.666667 0.666667)" d="M590.681 357.165C593.49 357.087 596.874 356.62 599.611 357.188C599.719 358.088 599.767 358.575 599.402 359.416L589.312 360.133C570.995 361.456 552.707 364.874 534.703 368.434C511.203 373.08 487.265 378.544 465.375 388.555C442.808 398.876 423.769 413.534 407.591 432.265L402.536 438.554C403.057 436.192 404.627 434.002 405.98 432.037C408.642 428.171 411.605 424.357 414.762 420.88C441.843 391.061 477.717 375.757 516.293 366.929C540.84 361.312 565.559 358.398 590.681 357.165Z"/>
	<path fill="#3188B5" transform="scale(0.666667 0.666667)" d="M577.451 324.516C582.496 324.296 587.921 323.061 592.921 322.252C595.301 321.867 597.691 321.307 600.114 321.397L600.015 328.756C586.914 330.118 573.726 332.746 560.811 335.329L529.875 342.014C502.599 349.087 474.321 359.852 451.026 375.904C443.044 381.405 435.539 387.669 428.456 394.279L418.816 403.667L420.704 400.125C422.213 397.632 424.459 395.369 426.448 393.24C430.585 388.813 435.018 384.689 439.564 380.688C450.647 370.933 462.898 363.181 475.875 356.19C483.567 352.047 491.125 348.253 499.27 345.06C515.15 338.835 531.746 334.386 548.331 330.497L566.933 326.481C570.174 325.854 573.553 325.508 576.743 324.701L577.451 324.516Z"/>
	<path fill="#211A1D" transform="scale(0.666667 0.666667)" d="M314.152 204.528L314.065 205.026C313.885 205.909 313.979 205.486 313.645 206.334C313.356 207.068 313.338 207.538 313.345 208.312C314.9 211.26 316.604 214.293 318.819 216.796L318.864 216.795C320.723 219.662 323.006 222.257 325.101 224.954L340.228 244.071L410.68 329.412L424.379 345.383C427.425 349.089 430.372 353.447 433.847 356.724C417.434 371.468 402.439 390.064 393.057 410.1C390.188 416.227 387.484 422.927 386.351 429.619C385.592 426.34 384.67 422.934 383.176 419.904C375.289 397.941 360.269 379.42 344.302 362.806C336.206 354.382 327.257 345.831 317.546 339.264C301.782 326.416 283.648 316.746 264.993 308.865L233.627 296.348L314.152 204.528Z"/>
	<path fill="#211A1D" transform="scale(0.666667 0.666667)" d="M382.224 28.5924L419.376 46.2797L549.777 108.516L609.987 138.019C616.491 141.413 623.401 144.187 629.373 148.496L629.463 397.737L616.367 397.753L616.163 160.659L385.616 52.7111L382.253 51.1106L152.582 161.626L152.607 397.553L140.046 397.595C139.25 396.286 139.799 390.687 139.791 388.915L139.659 355.924L139.5 147.02L382.224 28.5924Z"/>
	<path fill="#3188B5" transform="scale(0.666667 0.666667)" d="M216.349 557.884L289.586 558.02L312.345 558.067C318.939 558.1 325.641 558.086 332.164 559.163C339.85 560.431 347.156 563.179 353.742 567.356C370.815 578.185 379.67 592.619 384.036 612.047C384.893 608.081 385.679 604.027 387.007 600.188C389.969 591.622 395.199 583.529 401.49 577.043C408.816 569.489 418.063 563.487 428.261 560.693C436.638 558.398 445.656 558.405 454.28 558.288L478.912 558.094L553.234 557.921L516.232 597.271C482.238 627.479 444.451 651.638 405.321 674.555L389.251 683.678C387.658 684.481 385.77 685.666 384.046 686.03L359.133 671.44C314.22 645.495 269.108 617.962 233.755 579.381C227.616 572.682 221.14 565.629 216.349 557.884Z"/>
	<defs>
		<linearGradient id="gradient_4" gradientUnits="userSpaceOnUse" x1="380.00067" y1="64.542252" x2="384.32663" y2="282.04935">
			<stop offset="0" stop-color="#0072B4"/>
			<stop offset="1" stop-color="#F6FFFF"/>
		</linearGradient>
	</defs>
	<path fill="url(#gradient_4)" transform="scale(0.666667 0.666667)" d="M312.367 98.3246L383.178 64.2623L451.972 96.279L506.987 122.001L525.622 130.777C529.715 132.662 534.29 134.346 538.129 136.682L599.638 166.107L599.583 166.666C599.336 169.324 599.357 171.981 599.359 174.648C599.359 175.625 599.546 177.106 599.318 178.025L600.28 252.357L578.421 264.993C571.035 269.228 562.882 273.645 556.373 279.152C552.1 270.385 544.34 263.593 535.125 260.284C532.945 259.501 530.621 259.075 528.313 258.925C528.499 251.657 528.863 244.171 528.167 236.925C527.323 228.14 524.777 219.761 521.76 211.51C518.65 203.004 515.388 195.495 510.266 187.983C503.24 178.326 493.993 171.577 482.996 167.062C476.376 164.345 469.354 162.143 462.234 161.281C446.667 159.395 431.143 163.124 416.87 169.126C415.567 167.016 414.208 164.909 412.544 163.062C409.125 159.267 404.087 156.993 398.984 156.832C393.348 156.654 389.392 158.95 385.4 162.695C383.377 161.302 381.088 160.485 378.83 159.57L359.983 149.513C354.894 147.237 347.926 144.356 342.348 146.577C340.094 147.474 338.221 149.024 336.521 150.716C332.04 155.174 328.129 160.701 324.213 165.677L307.524 185.859C306.823 186.658 304.846 189.384 303.88 189.64C301.753 190.203 298.013 189.73 295.678 189.801C289.723 191.036 286.656 192.92 282.587 197.399C281.819 198.243 280.854 199.713 279.969 200.37C279.293 200.872 277.337 201.114 276.434 201.305L265.734 203.624C258.569 205.503 250.596 209.205 244.955 214.105C237.041 220.979 231.801 230.591 227.696 240.09C222.178 252.86 218.529 265.386 217.627 279.341L166.537 252.475L166.933 169.814L167.003 168.579L312.367 98.3246Z"/>
	<path fill="#211A1D" transform="scale(0.666667 0.666667)" d="M94.1284 412.625L136.998 412.743C143.621 412.755 150.516 412.284 157.108 412.698C159.46 412.846 161.921 413.87 164.271 414.297C168.167 415.005 172.179 415.346 176.114 415.815C203.172 419.039 230.053 422.846 256.524 429.447C275.609 434.206 294.936 440.549 312.371 449.773C338.128 463.4 362.853 482.337 378.249 507.483C381.409 512.644 384.152 517.572 385.941 523.368L389.782 511.599C394.251 501.34 401.218 492.315 408.767 484.146C436.585 454.041 475.398 439.25 514.389 429.807L566.984 419.462L587.648 416.746L602.57 415.215C605.389 414.895 608.925 414.623 611.564 413.532C614.497 412.318 617.973 412.606 621.095 412.597L634.168 412.575L671.563 412.571L671.496 470.062L671.579 515.292L559.473 515.147L559.56 539.215L497.62 539.198C478.072 539.232 457.224 538.148 438.051 542.404C415.772 547.349 395.925 560.881 383.727 580.256C380.495 575.186 377.07 570.438 372.828 566.152C360.926 554.128 345.257 546.535 328.928 542.663C308.896 537.914 287.214 539.261 266.752 539.233L201.655 539.174L201.709 515.344L93.8383 515.242L94.1284 412.625Z"/>
</svg>
